<svg width="14" height="14" viewBox="0 0 14 14" fill="none" xmlns="http://www.w3.org/2000/svg">
<path d="M5.66668 10.3333H9.66668C10.4 10.3333 11 9.73334 11 9H5.66668V10.3333ZM5.66668 5H9.66668C10.4 5 11 4.4 11 3.66667H5.66668V5ZM11.32 0.333334H2.68001C1.38668 0.333334 0.333344 1.38667 0.333344 2.68V11.3267C0.333344 12.62 1.38668 13.6733 2.68001 13.6733H11.3267C12.62 13.6733 13.6733 12.62 13.6733 11.3267V2.68C13.6667 1.38667 12.6133 0.333334 11.32 0.333334ZM3.00001 12.3333H2.68001C2.12001 12.3333 1.66668 11.88 1.66668 11.32V2.68C1.66668 2.12 2.12001 1.66667 2.68001 1.66667H3.00001V12.3333ZM12.3333 11.32C12.3333 11.88 11.88 12.3333 11.32 12.3333H4.33334V1.66667H11.32C11.88 1.66667 12.3333 2.12 12.3333 2.68V11.32ZM5.66668 7.66667H9.66668C10.4 7.66667 11 7.06667 11 6.33333H5.66668V7.66667Z" fill="white"/>
</svg>
