<svg width="12" height="12" viewBox="0 0 12 12" fill="none" xmlns="http://www.w3.org/2000/svg">
<path d="M9.91001 5.29C10.57 4.74 11 3.93 11 3C11 1.35 9.65001 0 8 0C6.62 0 5.46 0.95 5.12 2.22C4.77 2.08 4.4 2 4 2C2.35 2 1 3.35 1 5C1 5.93 1.43 6.74 2.09 7.29C0.860001 7.83 0 9.06 0 10.48V12H1V10.48C1 9.11 2.11 8 3.48 8H4.52C5.73 8 6.73 8.86 6.95 10C6.98 10.16 7 10.32 7 10.48V12H8V10.48C8 9.06 7.14 7.83 5.91 7.29C6.57 6.74 7 5.93 7 5C7 4.13 6.62 3.35 6.02 2.8C6.12 1.79 6.96 1 8 1C9.10001 1 10 1.9 10 3C10 4.1 9.10001 5 8 5C8 5.35 7.95 5.68 7.86 6H8.51C9.88001 6 10.99 7.11 10.99 8.48V11H11.99V8.48C12 7.06 11.14 5.83 9.91001 5.29ZM4 7C2.9 7 2 6.1 2 5C2 3.9 2.9 3 4 3C5.1 3 6 3.9 6 5C6 6.1 5.1 7 4 7Z" fill="white"/>
</svg>
