<svg width="10" height="12" viewBox="0 0 10 12" fill="none" xmlns="http://www.w3.org/2000/svg">
<path fill-rule="evenodd" clip-rule="evenodd" d="M9.9056 4.57585C10.0702 4.92723 10.0166 5.3421 9.76823 5.64019L4.76823 11.6402C4.46967 11.9985 3.96309 12.1028 3.54725 11.8916C3.13142 11.6805 2.91676 11.2099 3.02987 10.7575L3.71924 8H1.00001C0.611995 8 0.259003 7.77554 0.0944228 7.42416C-0.070157 7.07277 -0.0166119 6.6579 0.231791 6.35982L5.23179 0.359816C5.53036 0.00153822 6.03694 -0.102787 6.45277 0.108369C6.86861 0.319524 7.08327 0.790088 6.97015 1.24254L6.28079 4H9.00001C9.38803 4 9.74102 4.22446 9.9056 4.57585ZM5.00001 5H9.00001L4.00001 11L5.00001 7H1.00001L6.00001 1L5.00001 5Z" fill="white"/>
</svg>
