<svg width="13" height="15" viewBox="0 0 13 15" fill="none" xmlns="http://www.w3.org/2000/svg">
<path d="M8 1.33335H6.66667C6.66667 0.966687 6.36667 0.666687 6 0.666687C5.63333 0.666687 5.33333 0.966687 5.33333 1.33335H4V2.66669H8V1.33335ZM3.52667 8.47335L5.33333 10.28L8.47333 7.14002C8.73333 6.88002 8.73333 6.46002 8.47333 6.20002C8.21333 5.94002 7.79333 5.94002 7.53333 6.20002L5.33333 8.39335L4.47333 7.53335C4.21333 7.27335 3.79333 7.27335 3.53333 7.53335C3.26667 7.78669 3.26667 8.21335 3.52667 8.47335ZM9.55333 2.00002H8.66667V3.33335H9.55333C10.1667 3.33335 10.6667 3.83335 10.6667 4.44669V12.2267C10.6667 12.84 10.1667 13.34 9.55333 13.34H2.44667C1.83333 13.34 1.33333 12.84 1.33333 12.2267V4.44669C1.33333 3.83335 1.83333 3.33335 2.44667 3.33335H3.33333V2.00002H2.44667C1.09333 2.00002 0 3.09335 0 4.44669V12.2267C0 13.5734 1.09333 14.6734 2.44667 14.6734H9.56C10.9067 14.6734 12.0067 13.58 12.0067 12.2267V4.44669C12 3.09335 10.9067 2.00002 9.55333 2.00002Z" fill="#35414A"/>
</svg>
