<svg width="14" height="14" viewBox="0 0 14 14" fill="none" xmlns="http://www.w3.org/2000/svg">
<path d="M7.00001 1.66667C3.69334 1.66667 1.00001 4.36 1.00001 7.66667C1.00001 9.04667 1.47334 10.3133 2.26001 11.3333L1.16668 12.56C0.92001 12.8333 0.946677 13.2533 1.22001 13.5C1.34668 13.6133 1.50668 13.6667 1.66001 13.6667C1.84668 13.6667 2.02668 13.5933 2.16001 13.44L3.18001 12.2933C4.22001 13.1533 5.55334 13.6667 7.00001 13.6667C10.3067 13.6667 13 10.9733 13 7.66667C13 4.36 10.3067 1.66667 7.00001 1.66667ZM7.00001 12.3333C4.42668 12.3333 2.33334 10.24 2.33334 7.66667C2.33334 5.09333 4.42668 3 7.00001 3C9.57334 3 11.6667 5.09333 11.6667 7.66667C11.6667 10.24 9.57334 12.3333 7.00001 12.3333ZM1.78001 3.52667C1.70668 3.36667 1.66668 3.18667 1.66668 3C1.66668 2.26667 2.26668 1.66667 3.00001 1.66667C3.26001 1.66667 3.50001 1.74667 3.70668 1.87333C4.12668 1.63333 4.56668 1.44 5.03334 1.29333C4.54668 0.713334 3.82001 0.333334 3.00001 0.333334C1.52668 0.333334 0.333344 1.52667 0.333344 3C0.333344 3.67333 0.593344 4.28667 1.00668 4.75333C1.22001 4.32 1.48001 3.90667 1.78001 3.52667ZM11 1.66667C11.7333 1.66667 12.3333 2.26667 12.3333 3C12.3333 3.18667 12.2933 3.36667 12.22 3.52667C12.52 3.90667 12.7733 4.31333 12.9867 4.75333C13.4067 4.28667 13.6667 3.67333 13.6667 3C13.6667 1.52667 12.4733 0.333334 11 0.333334C10.18 0.333334 9.45334 0.713334 8.96668 1.29333C9.43334 1.44 9.87334 1.63333 10.2933 1.87333C10.5 1.74667 10.74 1.66667 11 1.66667ZM7.00001 4.33333V7.66667L9.00668 5.00667C8.72001 4.78667 8.40001 4.62 8.06001 4.50667C7.72001 4.39333 7.36001 4.33333 7.00001 4.33333ZM12.1933 11.84C11.9133 12.1867 11.6 12.5067 11.26 12.7933L11.8333 13.44C11.9667 13.5867 12.1467 13.6667 12.3333 13.6667C12.4933 13.6667 12.6467 13.6133 12.7733 13.5C13.0467 13.2533 13.0733 12.8333 12.8267 12.56L12.1933 11.84Z" fill="white"/>
</svg>
