<svg width="14" height="14" viewBox="0 0 14 14" fill="none" xmlns="http://www.w3.org/2000/svg">
<path d="M13.6667 8.33337C13.6667 6.20004 12.4 4.33337 10.5333 3.46671C9.66668 1.60004 7.80001 0.333374 5.66668 0.333374C2.73334 0.333374 0.333344 2.73337 0.333344 5.66671C0.333344 6.53337 0.533344 7.33337 0.933344 8.06671L0.40001 10.9334L3.26668 10.4C4.00001 10.8 4.80001 11 5.66668 11C8.60001 11 11 8.60004 11 5.66671C11 5.53337 11 5.46671 11 5.33337C11.8 6.06671 12.3333 7.13337 12.3333 8.33337C12.3333 9.20004 12.0667 10 11.6 10.6667L12 12L10.6667 11.6C10 12.0667 9.20001 12.3334 8.33334 12.3334C7.46668 12.3334 6.73334 12.0667 6.06668 11.6667C5.93334 11.6667 5.80001 11.6667 5.66668 11.6667C5.06668 11.6667 4.53334 11.6 4.00001 11.4C5.00001 12.7334 6.53334 13.6667 8.33334 13.6667C9.20001 13.6667 10 13.4667 10.7333 13.0667L13.6 13.6L13.0667 10.7334C13.4667 10 13.6667 9.20004 13.6667 8.33337ZM3.66668 6.33337C3.26668 6.33337 3.00001 6.06671 3.00001 5.66671C3.00001 5.26671 3.26668 5.00004 3.66668 5.00004C4.06668 5.00004 4.33334 5.26671 4.33334 5.66671C4.33334 6.06671 4.06668 6.33337 3.66668 6.33337ZM5.66668 6.33337C5.26668 6.33337 5.00001 6.06671 5.00001 5.66671C5.00001 5.26671 5.26668 5.00004 5.66668 5.00004C6.06668 5.00004 6.33334 5.26671 6.33334 5.66671C6.33334 6.06671 6.06668 6.33337 5.66668 6.33337ZM7.66668 6.33337C7.26668 6.33337 7.00001 6.06671 7.00001 5.66671C7.00001 5.26671 7.26668 5.00004 7.66668 5.00004C8.06668 5.00004 8.33334 5.26671 8.33334 5.66671C8.33334 6.06671 8.06668 6.33337 7.66668 6.33337Z" fill="#35414A"/>
</svg>
