<svg width="16" height="16" viewBox="0 0 16 16" fill="none" xmlns="http://www.w3.org/2000/svg">
<path fill-rule="evenodd" clip-rule="evenodd" d="M9.20217 3.8C8.38284 4.62187 8.38284 5.9625 9.20217 6.78438C9.60061 7.18438 10.126 7.40313 10.6895 7.40313C11.253 7.40313 11.7793 7.18438 12.1778 6.78438C12.5762 6.38438 12.794 5.85625 12.794 5.29063C12.794 4.725 12.5762 4.19688 12.1778 3.79688C11.3809 3.00313 9.99612 3 9.20217 3.8ZM10.0137 5.96875C10.375 6.33125 11.001 6.33125 11.3623 5.96875C11.543 5.7875 11.6426 5.54688 11.6455 5.29375C11.6455 5.0375 11.5459 4.79688 11.3653 4.61562C11.1846 4.43437 10.9453 4.33437 10.6895 4.33437C10.4346 4.33437 10.1944 4.43437 10.0137 4.61562C9.64358 4.9875 9.64358 5.59687 10.0137 5.96875Z" fill="#AEB3B7"/>
<path fill-rule="evenodd" clip-rule="evenodd" d="M15.9688 2.93438V7.04375C15.9971 8.44063 15.3096 9.45625 14.8985 9.9375L14.8731 9.96562L9.66506 15.1969C9.15237 15.7156 8.45803 16 7.71682 16C6.97561 16 6.28225 15.7125 5.76467 15.1938L0.834007 10.2437C0.320335 9.72812 0.0342024 9.03438 0.0312727 8.2875C0.028343 7.5375 0.308616 6.8375 0.825218 6.31875L6.16702 0.953125L6.19436 0.928125C6.5967 0.58125 7.47073 0 8.80666 0H13.292L13.3389 0.003125C14.8174 0.14375 15.9219 1.37813 15.9688 2.93438ZM13.4102 8.60625C13.6367 8.33125 13.9922 7.79062 13.9766 7.075L13.9737 7.05V2.98125C13.9541 2.45937 13.6338 2.0625 13.1856 2H8.80276C8.13967 2 7.72268 2.25312 7.52053 2.42188L2.23147 7.73438C1.94826 8.01875 1.95119 8.54063 2.24123 8.83125L7.1719 13.7812C7.31155 13.925 7.50198 14 7.71291 14C7.92483 14 8.11526 13.925 8.25491 13.7844L13.4102 8.60625Z" fill="#AEB3B7"/>
</svg>
