<svg width="14" height="12" viewBox="0 0 14 12" fill="none" xmlns="http://www.w3.org/2000/svg">
<path d="M11.84 1.59332C11.6 1.03332 11.0467 0.666656 10.4333 0.666656H3.56668C2.95334 0.666656 2.40001 1.03332 2.16001 1.59332L0.333344 5.85999V8.96665C0.333344 10.2667 1.39334 11.3267 2.69334 11.3267H11.3C12.6 11.3267 13.66 10.2667 13.66 8.96665V5.85999L11.84 1.59332ZM12.3333 8.97332C12.3333 9.53999 11.8733 9.99999 11.3067 9.99999H2.69334C2.12668 9.99999 1.66668 9.53999 1.66668 8.97332V6.66666H3.92001L4.58668 7.99999H9.41334L10.08 6.66666H11V5.33332H9.25334L8.58668 6.66666H5.41334L4.74668 5.33332H2.01334L3.39334 2.11999C3.42668 2.04666 3.49334 1.99999 3.57334 1.99999H10.4333C10.5133 1.99999 10.58 2.04666 10.6133 2.11999L12.3333 6.13999V8.97332Z" fill="#35414A"/>
</svg>
