<svg width="14" height="14" viewBox="0 0 14 14" fill="none" xmlns="http://www.w3.org/2000/svg">
<path d="M11.9333 3.66665H8.99998V1.39998L7.93331 0.333313H5.39998L4.33331 1.39998V3.39998L3.39998 4.33331H0.333313V11.2666L1.39998 12.3333H3.39998L4.73331 13.6666H11.2666L13.6666 11.2666V5.39998L11.9333 3.66665ZM2.99998 11H1.93331L1.66665 10.7333V5.66665H2.99998V11ZM12.3333 6.99998H8.99998V7.66665H12.3333V9.66665H8.99998V10.3333H12.3333V10.7333L10.7333 12.3333H5.26665L4.33331 11.4V5.26665L5.66665 3.93331V1.93331L5.93331 1.66665H7.39998L7.66665 1.93331V4.99998H11.4L12.3333 5.93331V6.99998Z" fill="#35414A"/>
</svg>
